<svg id="Capa_1" enable-background="new 0 0 511.999 511.999" height="512" viewBox="0 0 511.999 511.999" width="512" xmlns="http://www.w3.org/2000/svg"><path d="m406.999 301.998c-8.638 0-17.032 1.056-25.069 3.032l-174.961-174.96c1.977-8.037 3.032-16.431 3.032-25.068 0-57.897-47.103-105.001-105-105.001-12.663 0-25.066 2.25-36.866 6.687-4.772 1.794-8.305 5.889-9.382 10.871s.451 10.171 4.055 13.775l30.187 30.186-4.183 27.29-27.291 4.182-30.186-30.186c-3.604-3.604-8.795-5.129-13.775-4.055-4.983 1.076-9.078 4.61-10.872 9.381-4.438 11.8-6.688 24.205-6.688 36.87 0 57.897 47.103 105 105 105 8.639 0 17.034-1.056 25.071-3.032l174.96 174.958c-1.977 8.037-3.032 16.433-3.032 25.07 0 57.897 47.103 105 105 105 12.664 0 25.068-2.25 36.868-6.688 4.772-1.794 8.305-5.889 9.381-10.871 1.077-4.983-.45-10.172-4.055-13.775l-30.188-30.186 4.182-27.289 27.292-4.182 30.186 30.186c3.604 3.604 8.791 5.133 13.775 4.055 4.983-1.076 9.077-4.61 10.871-9.381 4.438-11.8 6.688-24.204 6.688-36.868 0-57.898-47.102-105.001-105-105.001z"/><g><path d="m465.174 123.723 42.432-42.432c2.813-2.813 4.393-6.628 4.393-10.606 0-3.979-1.58-7.794-4.393-10.606l-55.686-55.685c-5.857-5.857-15.355-5.857-21.213 0l-42.431 42.431z"/><path d="m40.311 401.535-39.058 89.462c-2.469 5.655-1.223 12.245 3.141 16.608 2.872 2.872 6.709 4.393 10.61 4.393 2.024 0 4.066-.409 5.999-1.253l89.461-39.059z"/></g><g><path d="m297.054 97.037h127.068v108.75h-127.068z" transform="matrix(.707 -.707 .707 .707 -1.452 299.319)"/><path d="m75.944 311.154h141.049v108.75h-141.049z" transform="matrix(.707 -.707 .707 .707 -215.568 210.63)"/></g></svg>